999
dxfrw 0.6.3
  0
SECTION
  2
HEADER
  9
$ACADVER
  1
AC1009
  9
$DWGCODEPAGE
  3
ANSI_1251
  9
$INSBASE
 10
0
 20
0
 30
0
  9
$EXTMIN
 10
-108.2984031917
 20
-92.50000352035094
 30
0
  9
$EXTMAX
 10
75.00000298025
 20
92.49999886375008
 30
0
  9
$LIMMIN
 10
0
 20
0
  9
$LIMMAX
 10
210
 20
297
  9
$ORTHOMODE
 70
    0
  9
$REGENMODE
 70
    1
  9
$FILLMODE
 70
    1
  9
$QTEXTMODE
 70
    0
  9
$MIRRTEXT
 70
    1
  9
$DRAGMODE
 70
    2
  9
$LTSCALE
 40
1
  9
$OSMODE
 70
    0
  9
$ATTMODE
 70
    1
  9
$TEXTSIZE
 40
3.5
  9
$TRACEWID
 40
1
  9
$TEXTSTYLE
  7
STANDARD
  9
$CLAYER
  8
0
  9
$CELTYPE
  6
BYLAYER
  9
$CECOLOR
 62
  256
  9
$DIMSCALE
 40
1
  9
$DIMASZ
 40
3.302
  9
$DIMEXO
 40
0
  9
$DIMDLI
 40
3.75
  9
$DIMRND
 40
0
  9
$DIMDLE
 40
0
  9
$DIMEXE
 40
1
  9
$DIMTP
 40
0
  9
$DIMTM
 40
0
  9
$DIMTXT
 40
3.5
  9
$DIMCEN
 40
2.5
  9
$DIMTSZ
 40
0
  9
$DIMTOL
 70
    0
  9
$DIMLIM
 70
    0
  9
$DIMTIH
 70
    1
  9
$DIMTOH
 70
    1
  9
$DIMSE1
 70
    0
  9
$DIMSE2
 70
    0
  9
$DIMTAD
 70
    1
  9
$DIMZIN
 70
    0
  9
$DIMBLK
  1

  9
$DIMASO
 70
    1
  9
$DIMSHO
 70
    1
  9
$DIMPOST
  1

  9
$DIMAPOST
  1

  9
$DIMALT
 70
    0
  9
$DIMALTD
 70
    3
  9
$DIMALTF
 40
0.0393700787
  9
$DIMLFAC
 40
1
  9
$DIMTOFL
 70
    1
  9
$DIMTVP
 40
0
  9
$DIMTIX
 70
    0
  9
$DIMSOXD
 70
    0
  9
$DIMSAH
 70
    0
  9
$DIMBLK1
  1

  9
$DIMBLK2
  1

  9
$DIMSTYLE
  2
ISO-25
  9
$DIMCLRD
 70
    0
  9
$DIMCLRE
 70
    0
  9
$DIMCLRT
 70
    0
  9
$DIMTFAC
 40
1
  9
$DIMGAP
 40
1.524
  9
$LUNITS
 70
    2
  9
$LUPREC
 70
    2
  9
$SKETCHINC
 40
1
  9
$FILLETRAD
 40
10
  9
$AUNITS
 70
    0
  9
$AUPREC
 70
    2
  9
$MENU
  1
.
  9
$ELEVATION
 40
0
  9
$PELEVATION
 40
0
  9
$THICKNESS
 40
0
  9
$LIMCHECK
 70
    0
  9
$BLIPMODE
 70
    0
  9
$CHAMFERA
 40
0
  9
$CHAMFERB
 40
0
  9
$SKPOLY
 70
    0
  9
$USRTIMER
 70
    1
  9
$ANGBASE
 50
0
  9
$ANGDIR
 70
    0
  9
$PDMODE
 70
    0
  9
$PDSIZE
 40
-1
  9
$PLINEWID
 40
0
  9
$COORDS
 70
    2
  9
$SPLFRAME
 70
    0
  9
$SPLINETYPE
 70
    6
  9
$SPLINESEGS
 70
    8
  9
$ATTDIA
 70
    1
  9
$ATTREQ
 70
    1
  9
$HANDLING
 70
    1
  9
$HANDSEED
  5
20000
  9
$SURFTAB1
 70
    6
  9
$SURFTAB2
 70
    6
  9
$SURFTYPE
 70
    6
  9
$SURFU
 70
    6
  9
$SURFV
 70
    6
  9
$UCSNAME
  2

  9
$UCSORG
 10
0
 20
0
 30
0
  9
$UCSXDIR
 10
1
 20
0
 30
0
  9
$UCSYDIR
 10
0
 20
1
 30
0
  9
$PUCSNAME
  2

  9
$PUCSORG
 10
0
 20
0
 30
0
  9
$PUCSXDIR
 10
1
 20
0
 30
0
  9
$PUCSYDIR
 10
0
 20
1
 30
0
  9
$USERI1
 70
    0
  9
$USERI2
 70
    0
  9
$USERI3
 70
    0
  9
$USERI4
 70
    0
  9
$USERI5
 70
    0
  9
$USERR1
 40
0
  9
$USERR2
 40
0
  9
$USERR3
 40
0
  9
$USERR4
 40
0
  9
$USERR5
 40
0
  9
$WORLDVIEW
 70
    1
  9
$SHADEDGE
 70
    3
  9
$SHADEDIF
 70
   70
  9
$TILEMODE
 70
    1
  9
$MAXACTVP
 70
   64
  9
$PLIMCHECK
 70
    0
  9
$PEXTMIN
 10
1e+20
 20
1e+20
 30
1e+20
  9
$PEXTMAX
 10
-1e+20
 20
-1e+20
 30
-1e+20
  9
$GRIDMODE
 70
    0
  9
$SNAPSTYLE
 70
    0
  9
$PLIMMIN
 10
0
 20
0
  9
$PLIMMAX
 10
420
 20
297
  9
$UNITMODE
 70
    0
  9
$VISRETAIN
 70
    1
  9
$PLINEGEN
 70
    0
  9
$PSLTSCALE
 70
    1
  0
ENDSEC
  0
SECTION
  2
TABLES
  0
TABLE
  2
VPORT
 70
    1
  0
VPORT
  2
*ACTIVE
 70
    0
 10
0
 20
0
 11
1
 21
1
 12
129.0821052631636
 22
47.79789473684423
 13
0
 23
0
 14
10
 24
10
 15
10
 25
10
 16
0
 26
0
 36
1
 17
0
 27
0
 37
0
 40
190.0800000000084
 41
2.200292397660819
 42
50
 43
0
 44
0
 50
0
 51
0
 71
    0
 72
  100
 73
    1
 74
    3
 75
    0
 76
    0
 77
    0
 78
    0
  0
ENDTAB
  0
TABLE
  2
LTYPE
 70
    4
  0
LTYPE
  2
BYBLOCK
 70
    0
  3

 72
   65
 73
    0
 40
0
  0
LTYPE
  2
BYLAYER
 70
    0
  3

 72
   65
 73
    0
 40
0
  0
LTYPE
  2
CONTINUOUS
 70
    0
  3
Solid line
 72
   65
 73
    0
 40
0
  0
LTYPE
  2
DOT
 70
    0
  3
Dot . . . . . . . . . . . . . . . . . . . . . .
 72
   65
 73
    2
 40
6.35
 49
0
 49
-6.35
  0
LTYPE
  2
DOTTINY
 70
    0
  3
Dot (.15x) .....................................
 72
   65
 73
    2
 40
0.9525
 49
0
 49
-0.9525
  0
LTYPE
  2
DOT2
 70
    0
  3
Dot (.5x) .....................................
 72
   65
 73
    2
 40
3.175
 49
0
 49
-3.175
  0
LTYPE
  2
DOTX2
 70
    0
  3
Dot (2x) .  .  .  .  .  .  .  .  .  .  .  .  .
 72
   65
 73
    2
 40
12.7
 49
0
 49
-12.7
  0
LTYPE
  2
DASHED
 70
    0
  3
Dashed _ _ _ _ _ _ _ _ _ _ _ _ _ _ _ _ _
 72
   65
 73
    2
 40
19.05
 49
12.7
 49
-6.35
  0
LTYPE
  2
DASHEDTINY
 70
    0
  3
Dashed (.15x) _ _ _ _ _ _ _ _ _ _ _ _ _ _ _ _ _
 72
   65
 73
    2
 40
2.8575
 49
1.905
 49
-0.9525
  0
LTYPE
  2
DASHED2
 70
    0
  3
Dashed (.5x) _ _ _ _ _ _ _ _ _ _ _ _ _ _ _ _ _
 72
   65
 73
    2
 40
9.524999999999999
 49
6.35
 49
-3.175
  0
LTYPE
  2
DASHEDX2
 70
    0
  3
Dashed (2x) ____  ____  ____  ____  ____  ___
 72
   65
 73
    2
 40
38.09999999999999
 49
25.4
 49
-12.7
  0
LTYPE
  2
DASHDOT
 70
    0
  3
Dash dot __ . __ . __ . __ . __ . __ . __ . __
 72
   65
 73
    4
 40
25.4
 49
12.7
 49
-6.35
 49
0
 49
-6.35
  0
LTYPE
  2
DASHDOTTINY
 70
    0
  3
Dash dot (.15x) _._._._._._._._._._._._._._._.
 72
   65
 73
    4
 40
3.81
 49
1.905
 49
-0.9525
 49
0
 49
-0.9525
  0
LTYPE
  2
DASHDOT2
 70
    0
  3
Dash dot (.5x) _._._._._._._._._._._._._._._.
 72
   65
 73
    4
 40
12.7
 49
6.35
 49
-3.175
 49
0
 49
-3.175
  0
LTYPE
  2
DASHDOTX2
 70
    0
  3
Dash dot (2x) ____  .  ____  .  ____  .  ___
 72
   65
 73
    4
 40
50.8
 49
25.4
 49
-12.7
 49
0
 49
-12.7
  0
LTYPE
  2
DIVIDE
 70
    0
  3
Divide ____ . . ____ . . ____ . . ____ . . ____
 72
   65
 73
    6
 40
31.75
 49
12.7
 49
-6.35
 49
0
 49
-6.35
 49
0
 49
-6.35
  0
LTYPE
  2
DIVIDETINY
 70
    0
  3
Divide (.15x) __..__..__..__..__..__..__..__.._
 72
   65
 73
    6
 40
4.7625
 49
1.905
 49
-0.9525
 49
0
 49
-0.9525
 49
0
 49
-0.9525
  0
LTYPE
  2
DIVIDE2
 70
    0
  3
Divide (.5x) __..__..__..__..__..__..__..__.._
 72
   65
 73
    6
 40
15.875
 49
6.35
 49
-3.175
 49
0
 49
-3.175
 49
0
 49
-3.175
  0
LTYPE
  2
DIVIDEX2
 70
    0
  3
Divide (2x) ________  .  .  ________  .  .  _
 72
   65
 73
    6
 40
63.5
 49
25.4
 49
-12.7
 49
0
 49
-12.7
 49
0
 49
-12.7
  0
LTYPE
  2
BORDER
 70
    0
  3
Border __ __ . __ __ . __ __ . __ __ . __ __ .
 72
   65
 73
    6
 40
44.45
 49
12.7
 49
-6.35
 49
12.7
 49
-6.35
 49
0
 49
-6.35
  0
LTYPE
  2
BORDERTINY
 70
    0
  3
Border (.15x) __.__.__.__.__.__.__.__.__.__.__.
 72
   65
 73
    6
 40
6.6675
 49
1.905
 49
-0.9525
 49
1.905
 49
-0.9525
 49
0
 49
-0.9525
  0
LTYPE
  2
BORDER2
 70
    0
  3
Border (.5x) __.__.__.__.__.__.__.__.__.__.__.
 72
   65
 73
    6
 40
22.225
 49
6.35
 49
-3.175
 49
6.35
 49
-3.175
 49
0
 49
-3.175
  0
LTYPE
  2
BORDERX2
 70
    0
  3
Border (2x) ____  ____  .  ____  ____  .  ___
 72
   65
 73
    6
 40
88.89999999999999
 49
25.4
 49
-12.7
 49
25.4
 49
-12.7
 49
0
 49
-12.7
  0
LTYPE
  2
CENTER
 70
    0
  3
Center ____ _ ____ _ ____ _ ____ _ ____ _ ____
 72
   65
 73
    4
 40
50.8
 49
31.75
 49
-6.35
 49
6.35
 49
-6.35
  0
LTYPE
  2
CENTERTINY
 70
    0
  3
Center (.15x) ___ _ ___ _ ___ _ ___ _ ___ _ ___
 72
   65
 73
    4
 40
7.619999999999999
 49
4.7625
 49
-0.9525
 49
0.9525
 49
-0.9525
  0
LTYPE
  2
CENTER2
 70
    0
  3
Center (.5x) ___ _ ___ _ ___ _ ___ _ ___ _ ___
 72
   65
 73
    4
 40
28.575
 49
19.05
 49
-3.175
 49
3.175
 49
-3.175
  0
LTYPE
  2
CENTERX2
 70
    0
  3
Center (2x) ________  __  ________  __  _____
 72
   65
 73
    4
 40
101.6
 49
63.5
 49
-12.7
 49
12.7
 49
-12.7
  0
ENDTAB
  0
TABLE
  2
LAYER
 70
    1
  0
LAYER
  2
0
 70
    0
 62
    7
  6
CONTINUOUS
  0
ENDTAB
  0
TABLE
  2
STYLE
 70
    3
  0
STYLE
  2
STANDARD
 70
    0
 40
0
 41
1
 50
0
 71
    0
 42
1
  3
TXT
  4

  0
ENDTAB
  0
TABLE
  2
VIEW
 70
    0
  0
ENDTAB
  0
TABLE
  2
UCS
 70
    0
  0
ENDTAB
  0
TABLE
  2
APPID
 70
    1
  0
APPID
  2
ACAD
 70
    0
  0
APPID
  2
LIBRECAD
 70
    0
  0
ENDTAB
  0
TABLE
  2
DIMSTYLE
 70
    1
  0
DIMSTYLE
  2
STANDARD
 70
    0
  3

  4

  5

  6

  7

 40
1
 41
3.302
 42
0
 43
0.38
 44
1
 45
0
 46
0
 47
0
 48
0
 49
1
140
3.5
141
0.09
142
0
143
25.4
144
1
145
0
146
1
147
1.524
 71
    0
 72
    0
 73
    1
 74
    1
 75
    0
 76
    0
 77
    0
 78
    0
170
    0
171
    2
172
    0
173
    0
174
    0
175
    0
176
    0
177
    0
178
    0
  0
ENDTAB
  0
ENDSEC
  0
SECTION
  2
BLOCKS
  0
BLOCK
  8
0
  2
$MODEL_SPACE
 70
    0
 10
0
 20
0
 30
0
  3
$MODEL_SPACE
  1

  0
ENDBLK
  8
0
  0
BLOCK
  8
0
  2
$PAPER_SPACE
 70
    0
 10
0
 20
0
 30
0
  3
$PAPER_SPACE
  1

  0
ENDBLK
  8
0
  0
ENDSEC
  0
SECTION
  2
ENTITIES
  0
CIRCLE
  5
31
  8
0
  6
CONTINUOUS
 62
    7
 10
1.499997019750012
 20
58.99999647965001
 40
1.199999999999989
  0
CIRCLE
  5
32
  8
0
  6
CONTINUOUS
 62
    7
 10
-58.50000298025
 20
46.49999647965001
 40
1.599999999999994
  0
CIRCLE
  5
33
  8
0
  6
CONTINUOUS
 62
    7
 10
67.49999701975
 20
-85.50000352034999
 40
4.500000000000007
  0
CIRCLE
  5
34
  8
0
  6
CONTINUOUS
 62
    7
 10
67.49999701975
 20
85.49999647965001
 40
4.5
  0
CIRCLE
  5
35
  8
0
  6
CONTINUOUS
 62
    7
 10
-67.50000298025
 20
85.49999647965001
 40
4.5
  0
CIRCLE
  5
36
  8
0
  6
CONTINUOUS
 62
    7
 10
-67.50000298025
 20
-85.50000352034999
 40
4.5
  0
CIRCLE
  5
37
  8
0
  6
CONTINUOUS
 62
    7
 10
-58.50000298025
 20
-70.50000352034999
 40
1.599999999999994
  0
CIRCLE
  5
38
  8
0
  6
CONTINUOUS
 62
    7
 10
58.49999701975
 20
-70.50000352034999
 40
1.599999999999994
  0
CIRCLE
  5
39
  8
0
  6
CONTINUOUS
 62
    7
 10
58.49999701975
 20
46.49999647965001
 40
1.599999999999994
  0
CIRCLE
  5
3A
  8
0
  6
CONTINUOUS
 62
    7
 10
-28.50000298024999
 20
58.99999647965001
 40
1.199999999999989
  0
CIRCLE
  5
3B
  8
0
  6
CONTINUOUS
 62
    7
 10
2.499997019750012
 20
81.99999647965001
 40
1.200000000000017
  0
CIRCLE
  5
3C
  8
0
  6
CONTINUOUS
 62
    7
 10
-29.50000298024999
 20
81.99999647965001
 40
1.200000000000017
  0
CIRCLE
  5
3D
  8
0
  6
CONTINUOUS
 62
    7
 10
36.53999701975002
 20
72.24999647965001
 40
1.549999999999983
  0
CIRCLE
  5
3E
  8
0
  6
CONTINUOUS
 62
    7
 10
12.33999701975
 20
72.24999647965001
 40
1.549999999999983
  0
CIRCLE
  5
3F
  8
0
  6
BYLAYER
 62
  256
 10
-103.9709215617
 20
-49.01800062500001
 40
1.700000000000017
  0
CIRCLE
  5
40
  8
0
  6
BYLAYER
 62
  256
 10
-103.9709215617
 20
-63.01800062500001
 40
1.700000000000017
  0
CIRCLE
  5
41
  8
0
  6
BYLAYER
 62
  256
 10
-87.9709215617
 20
-65.01800062500001
 40
4.5
  0
CIRCLE
  5
42
  8
0
  6
BYLAYER
 62
  256
 10
-83.9709215617
 20
-34.97856357130001
 40
1.700000000000017
  0
CIRCLE
  5
43
  8
0
  6
BYLAYER
 62
  256
 10
-83.9709215617
 20
-20.97856357130001
 40
1.700000000000017
  0
CIRCLE
  5
44
  8
0
  6
BYLAYER
 62
  256
 10
-99.97092156169998
 20
-18.97856357130001
 40
4.5
  0
CIRCLE
  5
45
  8
0
  6
BYLAYER
 62
  256
 10
-103.9709215617
 20
27.9305562447
 40
1.700000000000017
  0
CIRCLE
  5
46
  8
0
  6
BYLAYER
 62
  256
 10
-103.9709215617
 20
13.9305562447
 40
1.700000000000017
  0
CIRCLE
  5
47
  8
0
  6
BYLAYER
 62
  256
 10
-87.9709215617
 20
11.9305562447
 40
4.5
  0
CIRCLE
  5
48
  8
0
  6
BYLAYER
 62
  256
 10
-84.29840319169999
 20
41.9699932984
 40
1.699999999999989
  0
CIRCLE
  5
49
  8
0
  6
BYLAYER
 62
  256
 10
-84.29840319169999
 20
55.9699932984
 40
1.699999999999989
  0
CIRCLE
  5
4A
  8
0
  6
BYLAYER
 62
  256
 10
-100.2984031917
 20
57.9699932984
 40
4.5
  0
POLYLINE
  5
4B
  8
0
  6
BYLAYER
 62
  256
 66
    1
 10
0
 20
0
 30
0
 70
    1
  0
VERTEX
  5
4C
  8
0
  6
BYLAYER
 62
  256
 10
-70.00000309204999
 20
-92.50000352034999
 30
0
  0
VERTEX
  5
4D
  8
0
  6
BYLAYER
 62
  256
 10
69.99999701975
 20
-92.50000352035002
 30
0
 42
0.414213562373095
  0
VERTEX
  5
4E
  8
0
  6
BYLAYER
 62
  256
 10
75.00000298025
 20
-87.50000363215
 30
0
  0
VERTEX
  5
4F
  8
0
  6
BYLAYER
 62
  256
 10
74.99999701975003
 20
87.49999647965001
 30
0
 42
0.414213562373095
  0
VERTEX
  5
50
  8
0
  6
BYLAYER
 62
  256
 10
69.99999284745002
 20
92.49999886374999
 30
0
  0
VERTEX
  5
51
  8
0
  6
BYLAYER
 62
  256
 10
-70.00000298025
 20
92.49999647965001
 30
0
 42
0.414213562373095
  0
VERTEX
  5
52
  8
0
  6
BYLAYER
 62
  256
 10
-75.00000298025
 20
87.50000363215
 30
0
  0
VERTEX
  5
53
  8
0
  6
BYLAYER
 62
  256
 10
-75.00000298024999
 20
-87.50000352034999
 30
0
 42
0.4142135623730933
  0
SEQEND
  5
54
  8
0
  6
BYLAYER
 62
  256
  0
POLYLINE
  5
55
  8
0
  6
BYLAYER
 62
  256
 66
    1
 10
0
 20
0
 30
0
 70
    0
  0
VERTEX
  5
56
  8
0
  6
BYLAYER
 62
  256
 10
-99.9709211147
 20
34.4305555741
 30
0
  0
VERTEX
  5
57
  8
0
  6
BYLAYER
 62
  256
 10
-105.9709220982
 20
34.4305555741
 30
0
  0
SEQEND
  5
58
  8
0
  6
BYLAYER
 62
  256
  0
POLYLINE
  5
59
  8
0
  6
BYLAYER
 62
  256
 66
    1
 10
0
 20
0
 30
0
 70
    1
  0
VERTEX
  5
5A
  8
0
  6
BYLAYER
 62
  256
 10
-82.29840319169999
 20
65.4699932984
 30
0
 42
-0.4142135623730951
  0
VERTEX
  5
5B
  8
0
  6
BYLAYER
 62
  256
 10
-80.29840232739998
 20
63.46999320340001
 30
0
  0
VERTEX
  5
5C
  8
0
  6
BYLAYER
 62
  256
 10
-80.29840319169999
 20
37.4699932984
 30
0
 42
-0.414213562373095
  0
VERTEX
  5
5D
  8
0
  6
BYLAYER
 62
  256
 10
-82.29840265520001
 20
35.46999396889998
 30
0
  0
VERTEX
  5
5E
  8
0
  6
BYLAYER
 62
  256
 10
-88.29840319169999
 20
35.4699932984
 30
0
 42
-0.414213562373095
  0
VERTEX
  5
5F
  8
0
  6
BYLAYER
 62
  256
 10
-90.2984039665
 20
37.46999243409999
 30
0
  0
VERTEX
  5
60
  8
0
  6
BYLAYER
 62
  256
 10
-90.2984031917
 20
40.4699932984
 30
0
 42
0.4142135623730961
  0
VERTEX
  5
61
  8
0
  6
BYLAYER
 62
  256
 10
-100.2984028117
 20
50.46999363359998
 30
0
  0
VERTEX
  5
62
  8
0
  6
BYLAYER
 62
  256
 10
-106.2984031917
 20
50.4699932984
 30
0
 42
-0.414213562373095
  0
VERTEX
  5
63
  8
0
  6
BYLAYER
 62
  256
 10
-108.2984031917
 20
52.4699930301
 30
0
  0
VERTEX
  5
64
  8
0
  6
BYLAYER
 62
  256
 10
-108.2984031917
 20
63.4699932984
 30
0
 42
-0.414213562373093
  0
VERTEX
  5
65
  8
0
  6
BYLAYER
 62
  256
 10
-106.2984030967
 20
65.4699932984
 30
0
  0
SEQEND
  5
66
  8
0
  6
BYLAYER
 62
  256
  0
POLYLINE
  5
67
  8
0
  6
BYLAYER
 62
  256
 66
    1
 10
0
 20
0
 30
0
 70
    1
  0
VERTEX
  5
68
  8
0
  6
BYLAYER
 62
  256
 10
-105.9709215617
 20
4.4305562447
 30
0
 42
-0.414213562373095
  0
VERTEX
  5
69
  8
0
  6
BYLAYER
 62
  256
 10
-107.970922426
 20
6.43055633969999
 30
0
  0
VERTEX
  5
6A
  8
0
  6
BYLAYER
 62
  256
 10
-107.9709215617
 20
32.4305562447
 30
0
 42
-0.414213562373095
  0
VERTEX
  5
6B
  8
0
  6
BYLAYER
 62
  256
 10
-105.9709220982
 20
34.4305555741
 30
0
  0
VERTEX
  5
6C
  8
0
  6
BYLAYER
 62
  256
 10
-99.9709215617
 20
34.4305562447
 30
0
 42
-0.414213562373095
  0
VERTEX
  5
6D
  8
0
  6
BYLAYER
 62
  256
 10
-97.97092078690001
 20
32.43055710889999
 30
0
  0
VERTEX
  5
6E
  8
0
  6
BYLAYER
 62
  256
 10
-97.97092156170002
 20
29.4305562447
 30
0
 42
0.414213562373095
  0
VERTEX
  5
6F
  8
0
  6
BYLAYER
 62
  256
 10
-87.97092194169998
 20
19.4305559094
 30
0
  0
VERTEX
  5
70
  8
0
  6
BYLAYER
 62
  256
 10
-81.9709215617
 20
19.4305562447
 30
0
 42
-0.4142135623730961
  0
VERTEX
  5
71
  8
0
  6
BYLAYER
 62
  256
 10
-79.9709215617
 20
17.43055651289998
 30
0
  0
VERTEX
  5
72
  8
0
  6
BYLAYER
 62
  256
 10
-79.9709215617
 20
6.430556244699997
 30
0
 42
-0.4142135623730948
  0
VERTEX
  5
73
  8
0
  6
BYLAYER
 62
  256
 10
-81.97092165669999
 20
4.430556244700003
 30
0
  0
SEQEND
  5
74
  8
0
  6
BYLAYER
 62
  256
  0
POLYLINE
  5
75
  8
0
  6
BYLAYER
 62
  256
 66
    1
 10
0
 20
0
 30
0
 70
    1
  0
VERTEX
  5
76
  8
0
  6
BYLAYER
 62
  256
 10
-40.69000482564999
 20
65.37499791015
 30
0
  0
VERTEX
  5
77
  8
0
  6
BYLAYER
 62
  256
 10
-38.31000253555
 20
65.37499791015
 30
0
  0
VERTEX
  5
78
  8
0
  6
BYLAYER
 62
  256
 10
-36.87500208614999
 20
66.83446234095001
 30
0
  0
VERTEX
  5
79
  8
0
  6
BYLAYER
 62
  256
 10
-36.87500208614999
 20
75.62500005584999
 30
0
  0
VERTEX
  5
7A
  8
0
  6
BYLAYER
 62
  256
 10
-42.12500154975
 20
75.62500005584999
 30
0
  0
VERTEX
  5
7B
  8
0
  6
BYLAYER
 62
  256
 10
-42.12500154975
 20
66.83446234095001
 30
0
  0
SEQEND
  5
7C
  8
0
  6
BYLAYER
 62
  256
  0
POLYLINE
  5
7D
  8
0
  6
BYLAYER
 62
  256
 66
    1
 10
0
 20
0
 30
0
 70
    1
  0
VERTEX
  5
7E
  8
0
  6
BYLAYER
 62
  256
 10
3.699995577350009
 20
75.49999421465
 30
0
  0
VERTEX
  5
7F
  8
0
  6
BYLAYER
 62
  256
 10
-5.300000309949993
 20
75.49999421465
 30
0
  0
VERTEX
  5
80
  8
0
  6
BYLAYER
 62
  256
 10
-5.300000309949993
 20
64.50000172484999
 30
0
  0
VERTEX
  5
81
  8
0
  6
BYLAYER
 62
  256
 10
3.699995577350009
 20
64.50000172484999
 30
0
  0
SEQEND
  5
82
  8
0
  6
BYLAYER
 62
  256
  0
POLYLINE
  5
83
  8
0
  6
BYLAYER
 62
  256
 66
    1
 10
0
 20
0
 30
0
 70
    1
  0
VERTEX
  5
84
  8
0
  6
BYLAYER
 62
  256
 10
4.699997603850008
 20
56.50000041355
 30
0
  0
VERTEX
  5
85
  8
0
  6
BYLAYER
 62
  256
 10
-11.30000501875
 20
56.50000041355
 30
0
  0
VERTEX
  5
86
  8
0
  6
BYLAYER
 62
  256
 10
-11.30000501875
 20
47.49999707565001
 30
0
  0
VERTEX
  5
87
  8
0
  6
BYLAYER
 62
  256
 10
4.699997603850008
 20
47.49999707565001
 30
0
  0
SEQEND
  5
88
  8
0
  6
BYLAYER
 62
  256
  0
POLYLINE
  5
89
  8
0
  6
BYLAYER
 62
  256
 66
    1
 10
0
 20
0
 30
0
 70
    1
  0
VERTEX
  5
8A
  8
0
  6
BYLAYER
 62
  256
 10
-81.9709215617
 20
-11.47856357130001
 30
0
 42
-0.4142135623730943
  0
VERTEX
  5
8B
  8
0
  6
BYLAYER
 62
  256
 10
-79.97092069740002
 20
-13.47856366630002
 30
0
  0
VERTEX
  5
8C
  8
0
  6
BYLAYER
 62
  256
 10
-79.9709215617
 20
-39.47856357130001
 30
0
 42
-0.414213562373094
  0
VERTEX
  5
8D
  8
0
  6
BYLAYER
 62
  256
 10
-81.97092102520001
 20
-41.47856290080001
 30
0
  0
VERTEX
  5
8E
  8
0
  6
BYLAYER
 62
  256
 10
-87.9709215617
 20
-41.47856357130001
 30
0
 42
-0.4142135623730929
  0
VERTEX
  5
8F
  8
0
  6
BYLAYER
 62
  256
 10
-89.9709223365
 20
-39.47856443560002
 30
0
  0
VERTEX
  5
90
  8
0
  6
BYLAYER
 62
  256
 10
-89.97092156169995
 20
-36.47856357130001
 30
0
 42
0.414213562373095
  0
VERTEX
  5
91
  8
0
  6
BYLAYER
 62
  256
 10
-99.97092118169999
 20
-26.47856323610002
 30
0
  0
VERTEX
  5
92
  8
0
  6
BYLAYER
 62
  256
 10
-105.9709215617
 20
-26.47856357130001
 30
0
 42
-0.414213562373095
  0
VERTEX
  5
93
  8
0
  6
BYLAYER
 62
  256
 10
-107.9709215617
 20
-24.47856383960001
 30
0
  0
VERTEX
  5
94
  8
0
  6
BYLAYER
 62
  256
 10
-107.9709215617
 20
-13.47856357130001
 30
0
 42
-0.4142135623730951
  0
VERTEX
  5
95
  8
0
  6
BYLAYER
 62
  256
 10
-105.9709214667
 20
-11.47856357130001
 30
0
  0
SEQEND
  5
96
  8
0
  6
BYLAYER
 62
  256
  0
POLYLINE
  5
97
  8
0
  6
BYLAYER
 62
  256
 66
    1
 10
0
 20
0
 30
0
 70
    1
  0
VERTEX
  5
98
  8
0
  6
BYLAYER
 62
  256
 10
-105.9709215617
 20
-72.51800062499997
 30
0
 42
-0.4142135623730929
  0
VERTEX
  5
99
  8
0
  6
BYLAYER
 62
  256
 10
-107.9709224259
 20
-70.51800053000004
 30
0
  0
VERTEX
  5
9A
  8
0
  6
BYLAYER
 62
  256
 10
-107.9709215617
 20
-44.51800062500001
 30
0
 42
-0.4142135623730929
  0
VERTEX
  5
9B
  8
0
  6
BYLAYER
 62
  256
 10
-105.9709220981
 20
-42.51800129560002
 30
0
  0
VERTEX
  5
9C
  8
0
  6
BYLAYER
 62
  256
 10
-99.97092156169998
 20
-42.51800062500001
 30
0
 42
-0.414213562373095
  0
VERTEX
  5
9D
  8
0
  6
BYLAYER
 62
  256
 10
-97.97092078680001
 20
-44.51799976080002
 30
0
  0
VERTEX
  5
9E
  8
0
  6
BYLAYER
 62
  256
 10
-97.97092156170002
 20
-47.51800062500001
 30
0
 42
0.4142135623730949
  0
VERTEX
  5
9F
  8
0
  6
BYLAYER
 62
  256
 10
-87.97092194170001
 20
-57.51800096030001
 30
0
  0
VERTEX
  5
A0
  8
0
  6
BYLAYER
 62
  256
 10
-81.9709215617
 20
-57.51800062500001
 30
0
 42
-0.414213562373094
  0
VERTEX
  5
A1
  8
0
  6
BYLAYER
 62
  256
 10
-79.9709215617
 20
-59.51800035680002
 30
0
  0
VERTEX
  5
A2
  8
0
  6
BYLAYER
 62
  256
 10
-79.9709215617
 20
-70.518000625
 30
0
 42
-0.414213562373095
  0
VERTEX
  5
A3
  8
0
  6
BYLAYER
 62
  256
 10
-81.97092165670001
 20
-72.518000625
 30
0
  0
SEQEND
  5
A4
  8
0
  6
BYLAYER
 62
  256
  0
ENDSEC
  0
EOF
